#!OML:ASF E:/inclinewalkrobotboard/Project1/Captureday1/Session1/subject1.ASF
:FULLY-SPECIFIED
:DEGREES
213
root 0 0 0 1.8011687898633966 -10.22101934693792 0.9065723472730557
lowerback 0.34205686641776656 -1.6341771781872136 -2.601025630441008
upperback -0.39496047491544367 -2.1166773202177502 2.025534153709409
thorax -0.48758928416674896 -1.0678095244364796 3.4920119733794954
lowerneck -25.971209214215797 -1.743603807272165 -7.380948311175336
upperneck 22.84905599554477 0.061529769272747115 2.390586530458628
head 11.950515857940301 -0.4480717404109995 2.2423021917494586
rclavicle 1.884038357859988E-15 -1.2044449267486928E-15
rhumerus -34.183893158115715 -5.311019592137975 -78.49663991136825
rradius 28.70183790059935
rwrist 20.705635013060505
rhand -17.300310399982333 8.868784073168696
rfingers 7.125019999999948
rthumb 8.942316176873724 -20.881789604720865
lclavicle -2.3660397319890384E-15 1.5760617032622908E-15
lhumerus -23.657046363858825 -5.231074387436346 92.38588006099116
lradius 62.94329631558562
lwrist 3.3996199740508857
lhand -27.622235081100385 21.66588323835279
lfingers 7.125020000000005
lthumb -1.0493623483642267 51.72297360894032
rfemur -15.836165150780129 7.600533822090927 36.1466141088346
rtibia 20.684281299619084
rfoot -12.853372985968496 -8.890400280900959
rtoes 12.577692877598011
lfemur -9.446085441756123 0.6442383142281303 -14.468899517531419
ltibia 54.76821037366709
lfoot 8.024755375781263 -11.040847517878765
ltoes -10.056833034588704
214
root 0 0 0 1.7944914399984715 -10.216186058140416 0.8982806023587475
lowerback 0.3108802447084511 -1.6170264739543967 -2.61007920005389
upperback -0.4230774992315044 -2.0971690564220693 2.0091872191664395
thorax -0.5035863520177961 -1.0559038210940646 3.4784403707743805
lowerneck -25.842876580458242 -1.7469006493099104 -7.399804286866507
upperneck 23.05163240099002 0.042915745249630266 2.404245838096687
head 12.000224803093793 -0.4623968183507928 2.2495446510668184
rclavicle 2.1164210834042357E-15 -8.999531644774011E-16
rhumerus -33.76277035180771 -5.386750257948291 -79.04603987941151
rradius 29.085373291913495
rwrist 20.427924946900937
rhand -17.293590120833624 8.931111446351336
rfingers 7.125019999999942
rthumb 8.949437072068891 -20.808911084823073
lclavicle -3.1590151460442557E-15 2.1000833380101404E-15
lhumerus -23.63874645500079 -4.775714476461795 92.63568490228418
lradius 62.69926358428475
lwrist 2.992718500723666
lhand -27.91131231063092 21.312424274444332
lfingers 7.125020000000008
lthumb -1.3288899794995155 51.34824670745006
rfemur -7.530931925377301 8.597425523422018 38.483520404237225
rtibia 17.30647997540224
rfoot -20.060636757191737 -8.928704440825307
rtoes 11.006130588772457
lfemur -15.842592445011872 2.131110730636868 -13.089786367784885
ltibia 57.473989260411116
lfoot 3.053627456815274 -7.858946668226032
ltoes -10.163281178780348
215
root 0 0 0 1.7920139189927131 -10.224150013827387 0.9017670569571166
lowerback 0.24734702574863654 -1.6022912608085407 -2.6293296885243835
upperback -0.4595039161846408 -2.0820585390886595 1.9854723458722883
thorax -0.5092976564031578 -1.0449472347344313 3.4621065375469366
lowerneck -25.81519704721529 -1.7804971253578388 -7.431735632252313
upperneck 23.178829471546443 -0.016173456337399306 2.454134498176959
head 12.039763770424575 -0.48994713639662013 2.264524264994284
rclavicle 3.0803968890393933E-15 -6.292462107830125E-16
rhumerus -33.10667603789836 -5.147598550080036 -79.83220274879837
rradius 29.674503583428294
rwrist 19.953217030282524
rhand -17.381283725922817 9.048587813038
rfingers 7.125019999999934
rthumb 8.86472888281045 -20.68654058753381
lclavicle -3.2158074170802907E-15 2.584455727048436E-15
lhumerus -23.40252627149626 -4.3644691485730425 92.6981828885139
lradius 62.600608931799854
lwrist 2.6786105041373016
lhand -28.143725648217593 21.126203772865438
lfingers 7.12502000000001
lthumb -1.5537196323375833 51.14652038842602
rfemur -2.602277382399919 8.90573865424668 39.06130592099798
rtibia 16.682915452126977
rfoot -23.089582437597254 -8.70274574993293
rtoes 9.050605111545305
lfemur -20.447263883277706 2.847031969266279 -12.814936323206144
ltibia 58.350655149930056
lfoot -0.476827167721801 -5.737300173857724
ltoes -8.727133358117905
216
root 0 0 0 1.799206114043743 -10.229413856764518 0.9172052771543358
lowerback 0.1560309684209913 -1.587166248141417 -2.656648956078167
upperback -0.4931940683449714 -2.0680261848694625 1.9452355506999992
thorax -0.49706850890951293 -1.0336561224715168 3.4312651187111194
lowerneck -25.861900229179415 -1.853382134326821 -7.480181668092619
upperneck 23.28344167789032 -0.13554615104878076 2.5524144039937937
head 12.083827996590056 -0.5384090601986959 2.2906513620236586
rclavicle 6.800928912631512E-16 -6.493062005713738E-16
rhumerus -31.89199215256348 -3.968449653577675 -81.23438279441262
rradius 30.787579804265285
rwrist 19.105418498569044
rhand -17.725288850089672 9.221850449668178
rfingers 7.125019999999929
rthumb 8.530875610396006 -20.527916756858456
lclavicle -3.4166200377889387E-15 2.697622081346462E-15
lhumerus -22.844389450934038 -3.487952280200861 92.55104574940779
lradius 62.30825813763192
lwrist 2.3746993050384706
lhand -28.32559363084505 20.933584951584457
lfingers 7.12502000000001
lthumb -1.7293710213951323 50.938557025529285
rfemur 2.460076587757161 8.84334745359391 38.81395480547005
rtibia 18.821416070464352
rfoot -24.05713185475136 -8.28324156318492
rtoes 5.903392842173895
lfemur -24.82701323193399 2.543255162316778 -12.096474331814436
ltibia 54.87207152649328
lfoot -2.909692199249596 -3.2058555888329403
ltoes -7.465722571412374
217
root 0 0 0 1.807172338423505 -10.239370585352171 0.9261825955860595
lowerback 0.10541129119282466 -1.583129711905485 -2.669158238161633
upperback -0.502117504468578 -2.065729237003375 1.9201152071654768
thorax -0.4795339414892904 -1.0307777545495032 3.4095429632306
lowerneck -25.897439625229843 -1.8957991559671217 -7.5088047020947135
upperneck 23.371168843274223 -0.2016044778275049 2.599037221505655
head 12.119786597826476 -0.5662893394005487 2.303042897493143
rclavicle -2.9482122905073332E-15 -8.345222172087892E-16
rhumerus -31.058885076766895 -2.4237809149933156 -82.04806902848837
rradius 31.518297141921984
rwrist 18.530508450558866
rhand -18.098450927734724 9.295526541938266
rfingers 7.125019999999933
rthumb 8.170508465173862 -20.469304910841277
lclavicle -4.3294067921411926E-15 2.573949435833668E-15
lhumerus -22.51703444009393 -2.9605278409871145 92.40873932375487
lradius 62.03708198416838
lwrist 2.3059886529905445
lhand -28.340642164586438 20.821117112860975
lfingers 7.125020000000009
lthumb -1.7466820294436909 50.82102398559141
rfemur 6.151036143068577 8.751472966787118 38.51815413379872
rtibia 20.826533393722798
rfoot -24.10567241312552 -7.771404184211608
rtoes 3.4069570239152753
lfemur -28.354759462321677 1.4816706962339263 -11.229716651326873
ltibia 47.68039353307792
lfoot -4.3061453988060485 -0.8271932331864358
ltoes -6.11095252070953
218
root 0 0 0 1.8113060836371118 -10.267132230099277 0.9346005116853683
lowerback 0.046475331642378714 -1.5826185532210841 -2.6807822501429954
upperback -0.5165573638965067 -2.067344741939655 1.8907005014543234
thorax -0.4629052747868614 -1.0298849412504274 3.3834752093602685
lowerneck -25.91772789023201 -1.9281122038110254 -7.537705772745612
upperneck 23.535680416161536 -0.2476793027733083 2.6218884791271595
head 12.181505949880046 -0.5906570049953704 2.310574245803721
rclavicle -3.2958990561760417E-15 -1.594635887384305E-15
rhumerus -30.555982573736166 -1.0218135692654728 -82.39479071234697
rradius 31.912096446648334
rwrist 18.164307856817924
rhand -18.39840984756875 9.332594799175842
rfingers 7.125019999999938
rthumb 7.880796615627419 -20.443088207219432
lclavicle -5.0113603414289554E-15 2.4053971329324387E-15
lhumerus -22.21774281888342 -2.458183954090598 92.25085073161486
lradius 61.78627932990005
lwrist 2.2859726296627176
lhand -28.31622939306047 20.76186479230264
lfingers 7.125020000000008
lthumb -1.7267200966888554 50.75975828586516
rfemur 10.220079368204434 8.616595369618851 37.96908052565672
rtibia 23.3263221948379
rfoot -23.20762524897375 -6.824522047727808
rtoes 0.17587832415152604
lfemur -31.857255280482416 -0.9154689695134661 -10.10175243212252
ltibia 35.4558508825495
lfoot -4.855178840718043 2.0815435685214663
ltoes -3.5393393477358375
